<svg id="Capa_1" enable-background="new 0 0 512 512" height="512" viewBox="0 0 512 512" width="512" xmlns="http://www.w3.org/2000/svg"><path d="m494.553009 256.9259949c0-65.8089905-53.5400085-119.348999-119.348999-119.348999-3.3460083 0-6.6589966.1459961-9.9360046.4170074 5.1499939 11.6239929 8.4079895 24.0599976 9.618988 36.9340057.1059875-.0010071.2109985-.0079956.3169861-.0079956 45.2179871 0 82.0059814 36.7879944 82.0059814 82.006012 0 45.2189941-36.7879944 82.007019-82.0059814 82.007019-45.2189941 0-82.007019-36.7879944-82.007019-82.007019 0-31.8430023 18.256012-59.4859924 44.8410034-73.0639954-.3779907-12.9989929-3.7730103-25.4700012-9.8460083-36.6289978-42.5010071 18.2850037-72.3379974 60.5670013-72.3379974 109.6920166 0 59.4589844 43.7060089 108.8970032 100.6779938 117.8859863v60.1570129h-14.4039917c-10.3120117 0-18.6719971 8.3590088-18.6719971 18.6719971 0 10.3120117 8.3590088 18.67099 18.6719971 18.67099h14.4039917v21.0169983c0 10.3120117 8.3590088 18.6720276 18.6719971 18.6720276 10.3120117 0 18.67099-8.3590088 18.67099-18.6719971v-21.0169983h14.4030151c10.3120117 0 18.6719971-8.3590088 18.6719971-18.67099 0-10.3120117-8.3590088-18.6719971-18.6719971-18.6719971h-14.4030152v-60.1570129c56.9720459-8.9880676 100.67807-58.4260558 100.67807-117.8850707z" fill="#cc98e8"/><path d="m494.553009 256.9259949c0-65.8089905-53.5400085-119.348999-119.348999-119.348999-3.1419983 0-6.2550049.1239929-9.3359985.3630066 61.4620056 4.7779999 110.0130005 56.3179932 110.0130005 118.9849854 0 57.9869995-41.5690002 106.4420166-96.4710083 117.1439819-2.4400024.4750061-4.2059937 2.6000061-4.2059937 5.0859985v50.6260071c0 2.8640137 2.321991 5.1860046 5.1870117 5.1860046h8.7690125c10.1239929 0 18.7470093 7.8729858 19.1069946 17.9909973.3770142 10.6220093-8.1210022 19.3519897-18.6589966 19.3519897h-9.2160034c-2.8649902 0-5.1870117 2.321991-5.1870117 5.1870117v15.8299866c0 6.9070129-3.7600098 12.9240112-9.3359985 16.1530151 3.2380066 1.8760071 7.07901 2.8270264 11.177002 2.428009 9.6329956-.9379883 16.8299866-9.3280029 16.8299866-19.0069885v-20.5920105h13.9549866c10.125 0 18.7470093-7.8729858 19.1069946-17.9909973.3770142-10.6220093-8.1210022-19.3519897-18.6600037-19.3519897h-14.4029847v-60.1570129c56.9719849-8.9859925 100.678009-58.4239807 100.678009-117.8829956z" fill="#bf80e2"/><path d="m293.197998 256.9259949c0-31.8430023 18.2550049-59.4830017 44.8410034-73.0559998-.0650024-2.2550049-.2200012-4.4929962-.4649963-6.7129974-36.1040039 8.5809937-63.0469971 41.0780029-63.0469971 79.7689972 0 45.2189941 36.7879944 82.0069885 82.0069885 82.0069885 3.1579895 0 6.269989-.197998 9.3359985-.5469971-40.8379821-4.6510009-72.671997-39.3989868-72.671997-81.4599914z" fill="#bf80e2"/><path d="m441.9200134 18.9769993c-.0859985-10.1890001-8.3240051-18.4260006-18.5119934-18.5119991l-54.7510071-.464c-.0540161-.0010002-.1080017-.0010002-.1610107-.0010002-10.2380066 0-18.5809937 8.2559996-18.6679993 18.5139999-.0880127 10.3110008 8.2000122 18.7409973 18.5130005 18.8279991l10.2109985.0870018-52.3079834 52.3079987c-46.6409912-33.9280014-112.5059967-29.875-154.5480042 12.1669998 0 .0009995 0 .0009995-.0010071.0009995-10.7229919 10.723999-18.9689941 22.9990005-24.75 36.1080017 13.0429993 1.1040039 25.4949951 4.3130035 37.0140076 9.2879944 3.6840057-6.8220062 8.3860016-13.2339935 14.1419983-18.9909973 31.9729919-31.9749985 83.9979858-31.9720001 115.9750061 0 15.4890137 15.4900055 24.0190125 36.0830078 24.0190125 57.9880066s-8.5299988 42.4980011-24.0190125 57.9880066c-6.2019958 6.201004-13.2309875 11.2660065-20.8259888 15.1350098.3970032 13.2250061 3.9289856 25.6740112 9.8959961 36.6180115 13.7669983-5.9060059 26.4230042-14.4370117 37.3349915-25.348999 22.5419922-22.5419922 34.9570007-52.5140076 34.9570007-84.3930054 0-25.5659943-7.9920044-49.8999939-22.7810059-70.1650009l52.2990112-52.2989998.0859985 10.2120018c.0859985 10.2590027 8.4289856 18.5149994 18.6679993 18.5130005.0539856 0 .1069946 0 .1610107-.0009995 10.3120117-.086998 18.6000061-8.5169983 18.5119934-18.8290024z" fill="#8bcaff"/><path d="m256.4119873 268.2950134c-.1080017 0-.2149963.0079956-.322998.0079956-21.9049988 0-42.4980011-8.5299988-57.9869995-24.0189972-16.5820007-16.5820007-24.5419922-38.5569916-23.9250031-60.3310089-11.0650024-5.6940002-23.5850067-8.9389954-36.8430023-9.0249939-3.246994 34.2299957 8.2070007 69.605011 34.3619995 95.7610168 22.5419922 22.5419922 52.5140076 34.9570007 84.3919983 34.9570007 3.3580017 0 6.6929932-.1459961 10.0020142-.4190063-5.1009827-11.4770202-8.4400025-23.9010314-9.6780091-36.9320068z" fill="#8bcaff"/><path d="m245.9290009 305.2139893c-12.8939972-1.0809937-25.3659973-4.2109985-37.0350037-9.2369995-13.9019928 25.5650024-41.0070038 42.9559937-72.0970001 42.9559937-45.2190018 0-82.0070038-36.7879944-82.0070038-82.007019 0-45.2180023 36.7879944-82.0059967 82.0070038-82.0059967 45.2180023 0 82.0059967 36.7879944 82.0059967 82.0059967 0 .8049927-.0379944 1.6000061-.0610046 2.3999939 11.2810059 5.7850037 23.8309937 8.8909912 36.8639984 8.9660034.3549957-3.7420044.5400085-7.5320129.5400085-11.3649902 0-65.8089905-53.5400085-119.348999-119.348999-119.348999-65.8099976 0-119.3499985 53.5400085-119.3499985 119.348999 0 59.4590149 43.7060013 108.8970032 100.6780014 117.8860168v60.1570129h-14.4039993c-10.3120041 0-18.6720047 8.3590088-18.6720047 18.6719971 0 10.3120117 8.3590012 18.67099 18.6719971 18.67099h14.4039993v21.0169983c0 10.3120117 8.3590012 18.6720276 18.6720047 18.6720276 10.3119965 0 18.6710052-8.3590088 18.6710052-18.6719971v-21.0169983h14.4019928c10.3119965 0 18.6719971-8.3590088 18.6719971-18.67099 0-10.3120117-8.3589935-18.6719971-18.6719971-18.6719971h-14.4020081v-60.1570129c40.5120087-6.3930055 74.3090058-33.2410279 90.4610139-69.5990296z" fill="#ff94d4"/><path d="m183.9600067 147.3000031c3.6840057-6.8220062 8.3860016-13.2350006 14.1419983-18.9909973 14.2140045-14.2139969 32.3910065-22.0930023 51.0059967-23.6689987-24.6679993-3.427002-50.6029968 4.3130035-69.5299988 23.2409973-4.3150024 4.3149948-8.0299988 9.0040054-11.1829987 13.9500046 5.3470002 1.4699859 10.5439912 3.3009948 15.5650025 5.4689941z" fill="#60b8ff"/><path d="m174.1779938 183.9530029c-5.6970062-2.9320068-11.7819977-5.2089996-18.1519928-6.746994-2.5500031 23.878006 5.2899933 48.6660004 23.5529938 66.9300079 15.526001 15.526001 36.1689911 24.0769958 58.1259918 24.0769958 2.9720001 0 5.9169922-.1700134 8.8309937-.4790039-18.2879944-2.1090088-35.2210083-10.2369995-48.4339905-23.4499969-16.5819855-16.582016-24.5409852-38.5570068-23.923996-60.3310089z" fill="#60b8ff"/><path d="m127.4609985 175.4669952c-3.0660019-.348999-6.1780014-.5469971-9.3359985-.5469971-45.2190018 0-82.0070038 36.7879944-82.0070038 82.0059967 0 45.2189941 36.7879944 82.0069885 82.0070038 82.0069885 3.1579971 0 6.2689972-.197998 9.3359985-.5469971-40.8370056-4.651001-72.6709976-39.3989868-72.6709976-81.4599915 0-42.0589903 31.8339996-76.8069914 72.6709976-81.4589995z" fill="#ff73c6"/><path d="m245.9290009 305.2139893c-5.9279938-.4970093-11.7669983-1.4230042-17.4790039-2.7720032-15.1069946 36.4790039-47.7980042 63.8989868-87.4459991 71.6279907-2.4400024.4760132-4.2059937 2.6000061-4.2059937 5.0859985v50.6260071c0 2.8649902 2.3220062 5.1860046 5.1860046 5.1860046h8.7689972c10.125 0 18.746994 7.8729858 19.1069946 17.9909973.3769989 10.6220093-8.1210022 19.3519897-18.6589966 19.3519897h-9.2160034c-2.8650055 0-5.1860046 2.321991-5.1860046 5.1870117v15.8299866c0 6.9070129-3.7599945 12.9240112-9.3359985 16.1529846 3.2389984 1.8760071 7.0789948 2.8270264 11.177002 2.428009 9.6329956-.9379883 16.8300018-9.3280029 16.8300018-19.006012v-20.5920105h13.9550018c10.125 0 18.746994-7.8729858 19.1069946-17.9909973.3769989-10.6220093-8.1210022-19.3519897-18.6589966-19.3519897h-14.4029999v-60.1570129c40.5099945-6.3909301 74.3079987-33.2399291 90.4589997-69.5969542z" fill="#ff73c6"/><path d="m237.473999 256.9259949c0 3.0840149-.125 6.1390076-.3560028 9.1640015 5.9920044 1.4129944 12.1820068 2.1640015 18.4869995 2.2009888.3549957-3.7420044.5399933-7.5320129.5399933-11.3649902 0-65.8089905-53.5400085-119.348999-119.348999-119.348999-3.1419983 0-6.2550049.1239929-9.3359985.3630066 61.4630127 4.7789915 110.0140075 56.3190001 110.0140075 118.9859923z" fill="#ff73c6"/><g fill="#60b8ff"><path d="m441.9200134 18.9769993c-.0859985-10.1890001-8.3240051-18.4260006-18.5119934-18.5119991l-13.42099-.114c8.0010071 2.0810001 13.9249878 9.2980003 13.9979858 17.9349995l.4649963 54.8839989c.0629883 7.3170013-4.0929871 13.6719971-10.1860046 16.8010025 2.776001 1.6340027 5.9979858 2.5879974 9.446991 2.5879974.0539856 0 .1069946 0 .1610107-.0009995 10.3120117-.086998 18.6000061-8.5169983 18.5119934-18.8290024z"/><path d="m264.928009 302.5419922c-5.8900146 1.3640137-11.9100037 2.2929993-18.0249939 2.7550049 3.0410004.230011 6.1040039.348999 9.1860046.348999 3.3580017 0 6.6929932-.1459961 10.0020142-.4190063-.3960266-.8899842-.7880249-1.7829896-1.1630249-2.6849976z"/><path d="m404.9559937 57.7029991c0-4.6209984-5.5889893-6.9350014-8.855011-3.6660004l-61.5939941 61.6380043c14.7929993 20.2700043 22.8009949 44.6029968 22.8359985 70.1699982.0400085 30.3330078-11.4989929 59.723999-32.2359924 81.8609924-7.6669922 8.1849976-16.2720032 15.1390076-25.5750122 20.7749939 1.0830078 2.5870056 2.2829895 5.1130066 3.6159973 7.5580139 14.0979919-6.0480042 27.0299988-14.8500061 38.1180115-26.1400146 21.9429932-22.3439941 34.2619934-52.6320038 34.1730042-83.9490051-.071991-25.4380035-8.0580139-49.6439972-22.7799988-69.8170013l52.298004-52.2980004v-6.1319809z"/></g></svg>