<?xml version="1.0" encoding="iso-8859-1"?>
<!-- Generator: Adobe Illustrator 18.0.0, SVG Export Plug-In . SVG Version: 6.00 Build 0)  -->
<!DOCTYPE svg PUBLIC "-//W3C//DTD SVG 1.1//EN" "http://www.w3.org/Graphics/SVG/1.1/DTD/svg11.dtd">
<svg version="1.1" id="Capa_1" xmlns="http://www.w3.org/2000/svg" xmlns:xlink="http://www.w3.org/1999/xlink" x="0px" y="0px"
	 viewBox="0 0 214.029 214.029" style="enable-background:new 0 0 214.029 214.029;" xml:space="preserve">
<g>
	<path style="fill:#6FC1A3;" d="M123.952,19.683c0,0-3.167-25.108-43.667-18.608s-53.833,79.735-23.333,112.2s42.5,36.611,40,49.788
		C94.452,176.239,156.952,79.127,123.952,19.683z"/>
	<path style="fill:#F9C5F7;" d="M126.695,20.109c0,2.724-2.208,4.933-4.933,4.933h-10.012c-2.725,0-4.933-2.208-4.933-4.933l0,0
		c0-2.724,2.208-4.933,4.933-4.933h10.012C124.487,15.177,126.695,17.385,126.695,20.109L126.695,20.109z"/>
	<path style="fill:#F9D89D;" d="M128.104,143.654c0,6.282-5.094,11.375-11.375,11.375l0,0c-6.283,0-11.375-5.093-11.375-11.375
		v-16.5c0-6.282,5.092-11.375,11.375-11.375l0,0c6.281,0,11.375,5.093,11.375,11.375V143.654z"/>
	<path style="opacity:0.7;fill:#F9CDAF;" d="M116.757,116.779c-6.283,0-11.375,5.093-11.375,11.375v6.374
		c3.667,0.863,7.486,1.334,11.416,1.334c3.901,0,7.691-0.464,11.334-1.314v-6.394C128.132,121.872,123.038,116.779,116.757,116.779z
		"/>
	<circle style="fill:#F9D89D;" cx="116.756" cy="82.196" r="49.667"/>
	
		<ellipse transform="matrix(0.9112 -0.412 0.412 0.9112 -27.9037 34.9445)" style="fill:#F9D89D;" cx="67.103" cy="82.196" rx="5.166" ry="13.667"/>
	
		<ellipse transform="matrix(-0.9112 -0.4119 0.4119 -0.9112 284.2354 225.6556)" style="fill:#F9D89D;" cx="166.437" cy="82.196" rx="5.167" ry="13.667"/>
	<path style="fill:#F9D89D;" d="M160.253,214.029v-55.5c0-8.284-6.716-15-15-15H88.259c-8.285,0-15,6.716-15,15v55.5H160.253z"/>
	<path style="fill:#9F9FF7;" d="M160.253,158.529c0-8.284-6.716-15-15-15h-8.761c-3.971,3.28-11.085,7.888-19.735,7.888
		c-8.65,0-15.765-4.607-19.735-7.888h-8.763c-8.285,0-15,6.716-15,15v55.5h86.994V158.529z"/>
	<rect x="83.256" y="174.717" style="opacity:0.4;fill:#9F9FF7;" width="3.667" height="39.313"/>
	<rect x="146.589" y="174.717" style="opacity:0.4;fill:#9F9FF7;" width="3.667" height="39.313"/>
	<polygon style="fill:#D9D9D9;" points="69.359,89.773 62.634,89.773 65.997,98.576 	"/>
	<polygon style="fill:#D9D9D9;" points="170.312,89.773 163.586,89.773 166.949,98.576 	"/>
	<path style="fill:#6FC1A3;" d="M153.157,37.852c-18.966-18.641-44.045-15.959-54.34-13.576c-43.994,10.188-30.5,64.12-40.833,69.61
		c-3.077,1.635,16.788-3.967,26.839-9.756c24.56-14.146,47.511-40.706,61.667-30.54c12.607,9.053,21.037,21.651,19.892,30.54
		C166.382,84.13,170.823,55.215,153.157,37.852z"/>
	<path style="fill:none;stroke:#FFFFFF;stroke-miterlimit:10;" d="M95.49,195.977c4.25-1,9.75-8.5,7.25-13.25s-6.75,5.5,5.5,6.625
		s9.5-7.875,6.25-12.125s-3.384,8.849,8.5,6.75c8.501-1.501,4.359-13.502,2.334-12.001c0,0-3.084,12.001,13.916,4.501"/>
	<path style="fill:none;stroke:#FFFFFF;stroke-miterlimit:10;" d="M97.74,200.727c0,0,25.5-13.75,43-19.5"/>
	<path style="fill:#B25778;" d="M120.896,105.286c-1.627-1.952-2.612,0.547-3.53,1.428c-0.919-0.881-1.815-3.437-3.531-1.428
		c-2.049,2.399-2.985,3.256-5.112,5.113c0,0,0.015,0.399,0.037,0.594c0.378,4.048,5.306,7.721,8.605,7.721
		c3.3,0,8.228-3.672,8.606-7.72c0.023-0.195,0.038-0.595,0.038-0.595C123.135,107.973,123.135,107.973,120.896,105.286z"/>
</g>
<g>
</g>
<g>
</g>
<g>
</g>
<g>
</g>
<g>
</g>
<g>
</g>
<g>
</g>
<g>
</g>
<g>
</g>
<g>
</g>
<g>
</g>
<g>
</g>
<g>
</g>
<g>
</g>
<g>
</g>
</svg>
