<svg height="512pt" viewBox="0 0 512.001 512" width="512pt" xmlns="http://www.w3.org/2000/svg"><path d="m512 160.476562c0-88.484374-72.074219-160.476562-160.660156-160.476562-35.671875 0-68.660156 11.679688-95.34375 31.398438 10.285156 7.597656 19.625 16.402343 27.832031 26.1875 19.402344-12.742188 42.601563-20.171876 67.511719-20.171876 67.933594 0 123.203125 55.203126 123.203125 123.0625 0 67.855469-55.269531 123.058594-123.203125 123.058594-67.9375 0-123.207032-55.203125-123.207032-123.058594 0-29.515624 10.460938-56.632812 27.867188-77.859374-7.945312-9.6875-17.347656-18.128907-27.855469-25.027344-23.375 27.878906-37.46875 63.765625-37.46875 102.882812 0 82.160156 62.136719 150.085938 141.933594 159.378906v128.882813l-23.183594-22.769531c-7.375-7.242188-19.234375-7.144532-26.484375.226562-7.25 7.367188-7.152344 19.210938.226563 26.453125l55.039062 54.054688c7.191407 7.0625 19.070313 7.0625 26.261719 0l55.042969-54.054688c7.375-7.242187 7.476562-19.085937.222656-26.453125-7.25-7.371094-19.109375-7.46875-26.484375-.226562l-23.183594 22.769531v-128.878906c79.796875-9.296875 141.933594-77.21875 141.933594-159.378907zm0 0" fill="#cc98e8"/><g fill="#bf80e2"><path d="m397.019531 423.125c1.425781.824219 2.773438 1.835938 3.988281 3.066406 7.25 7.367188 7.152344 19.210938-.226562 26.453125l-55.042969 54.058594c-1.144531 1.125-2.417969 2.050781-3.765625 2.816406 7.101563 4.046875 16.449219 3.121094 22.496094-2.816406l55.042969-54.058594c7.375-7.242187 7.476562-19.085937.222656-26.453125-6.117187-6.214844-15.5-7.238281-22.714844-3.066406zm0 0"/><path d="m351.339844 0c-3.144532 0-6.265625.101562-9.367188.28125 84.246094 4.859375 151.300782 74.851562 151.300782 160.195312 0 80.628907-59.84375 147.546876-137.492188 158.796876-2.550781.371093-4.441406 2.558593-4.441406 5.132812v116.488281c0 9.75 11.765625 14.679688 18.726562 7.839844v-128.878906c79.796875-9.296875 141.933594-77.222657 141.933594-159.378907 0-88.484374-72.074219-160.476562-160.660156-160.476562zm0 0"/><path d="m283.828125 57.589844c16.949219-11.132813 36.792969-18.210938 58.144531-19.820313-3.089844-.234375-6.210937-.355469-9.363281-.355469-19.808594 0-38.539063 4.703126-55.136719 13.035157 2.1875 2.316406 4.308594 4.695312 6.355469 7.140625zm0 0"/><path d="m228.132812 160.476562c0-29.515624 10.460938-56.632812 27.867188-77.859374-2.925781-3.570313-6.066406-6.964844-9.371094-10.1875-22.949218 22.367187-37.222656 53.570312-37.222656 88.046874 0 67.855469 55.269531 123.0625 123.203125 123.0625 3.152344 0 6.273437-.121093 9.363281-.355468-63.578125-4.792969-113.839844-57.996094-113.839844-122.707032zm0 0"/></g><path d="m202.574219 425.96875-23.183594 22.765625v-128.878906c28.460937-3.316407 54.675781-14.097657 76.625-30.316407-10.289063-7.597656-19.636719-16.390624-27.847656-26.171874-19.398438 12.742187-42.601563 20.167968-67.507813 20.167968-67.933594 0-123.203125-55.203125-123.203125-123.058594 0-67.855468 55.269531-123.0625 123.203125-123.0625 67.9375 0 123.207032 55.203126 123.207032 123.0625 0 29.503907-10.457032 56.617188-27.855469 77.839844 7.945312 9.6875 17.332031 18.144532 27.839843 25.042969 23.375-27.875 37.472657-63.761719 37.472657-102.882813 0-88.488281-72.074219-160.476562-160.664063-160.476562-88.585937 0-160.660156 71.992188-160.660156 160.476562 0 82.160157 62.136719 150.082032 141.933594 159.378907v128.878906l-23.183594-22.765625c-7.375-7.246094-19.234375-7.144531-26.484375.222656-7.253906 7.367188-7.152344 19.210938.222656 26.453125l55.042969 54.058594c7.191406 7.0625 19.070312 7.0625 26.261719 0l55.042969-54.058594c7.375-7.242187 7.476562-19.085937.222656-26.453125-7.25-7.367187-19.109375-7.46875-26.484375-.222656zm0 0" fill="#8bcaff"/><path d="m151.296875 37.769531c-3.089844-.234375-6.214844-.355469-9.363281-.355469-67.9375 0-123.207032 55.207032-123.207032 123.0625 0 67.855469 55.269532 123.0625 123.207032 123.0625 3.148437 0 6.273437-.121093 9.363281-.355468-63.578125-4.792969-113.839844-57.996094-113.839844-122.707032 0-64.710937 50.261719-117.914062 113.839844-122.707031zm0 0" fill="#60b8ff"/><path d="m206.34375 423.125c1.425781.824219 2.773438 1.835938 3.988281 3.066406 7.25 7.367188 7.152344 19.210938-.226562 26.453125l-55.042969 54.058594c-1.144531 1.125-2.417969 2.050781-3.765625 2.816406 7.101563 4.046875 16.449219 3.121094 22.496094-2.816406l55.042969-54.058594c7.375-7.242187 7.476562-19.085937.222656-26.453125-6.117188-6.214844-15.5-7.238281-22.714844-3.066406zm0 0" fill="#60b8ff"/><path d="m302.59375 160.476562c0 35.109376-11.347656 67.617188-30.574219 94.0625 3.761719 3.167969 7.710938 6.113282 11.832031 8.820313 23.375-27.875 37.472657-63.761719 37.472657-102.882813 0-88.488281-72.074219-160.476562-160.664063-160.476562-3.140625 0-6.261718.101562-9.363281.28125 84.246094 4.859375 151.296875 74.851562 151.296875 160.195312zm0 0" fill="#60b8ff"/><path d="m246.640625 282.074219c-22.601563 19.441406-50.660156 32.726562-81.539063 37.199219-2.550781.371093-4.441406 2.558593-4.441406 5.132812v116.488281c0 9.75 11.769532 14.679688 18.730469 7.839844v-128.878906c28.464844-3.316407 54.675781-14.097657 76.625-30.316407-3.21875-2.375-6.347656-4.863281-9.375-7.464843zm0 0" fill="#60b8ff"/></svg>