<svg id="Capa_1" enable-background="new 0 0 512 512" height="512" viewBox="0 0 512 512" width="512" xmlns="http://www.w3.org/2000/svg"><path d="m512 160.4889984c0-88.473999-72.072998-160.4539984-160.6619873-160.4539984-35.6610107 0-68.6409912 11.6700001-95.3259888 31.3789997 10.2879944 7.6009998 19.6340027 16.3980007 27.8399963 26.1830006 19.3980103-12.7330017 42.5880127-20.1529999 67.4850159-20.1529999 67.9349976 0 123.2050171 55.197998 123.2050171 123.0449982s-55.269989 123.0449982-123.2050171 123.0449982-123.2050018-55.197998-123.2050018-123.0449982c0-29.5180054 10.4649963-56.6380005 27.8799896-77.8639984-7.9429932-9.6869965-17.3439941-18.1320038-27.8500061-25.0309982-23.3849945 27.875-37.4869995 63.7690048-37.4869995 102.8949966 0 82.1470032 62.1369934 150.0619965 141.9330139 159.3570099v128.8639832l-23.1830139-22.7640076c-7.3760071-7.2430115-19.2330017-7.1430054-26.4850159.223999-7.2520142 7.3659973-7.1520081 19.2080078.223999 26.4509888l55.0419922 54.0490112c7.1910095 7.0620117 19.0690002 7.0620117 26.2609863 0l55.0429993-54.0490112c7.3760071-7.2420044 7.4760132-19.0849915.223999-26.4509888-7.2520142-7.3670044-19.1100159-7.4670105-26.4850159-.223999l-23.1839905 22.7650146v-128.8649904c79.7980348-9.2950134 141.9350282-77.2100067 141.9350282-159.3570099z" fill="#8bcaff"/><path d="m397.0190125 423.1040039c1.427002.8250122 2.776001 1.8340149 3.9869995 3.0650024 7.2520142 7.3659973 7.1520081 19.2080078-.223999 26.4509888l-55.0429993 54.0490112c-1.1459961 1.125-2.4200134 2.0509949-3.7659912 2.8169861 7.1010132 4.0450134 16.4490051 3.118988 22.4949951-2.8169861l55.0429993-54.0490112c7.3760071-7.2420044 7.4760132-19.0849915.223999-26.4509888-6.1160279-6.2130126-15.5000305-7.2359924-22.7160034-3.0650024z" fill="#60b8ff"/><path d="m351.3380127.035c-3.1440125 0-6.2640076.101-9.3640137.28 84.2470093 4.8600001 151.2980042 74.8389969 151.2980042 160.173996 0 80.6169891-59.8429871 147.5269928-137.4920044 158.7769928-2.5509949.3699951-4.4410095 2.5570068-4.4410095 5.1319885v116.4720154c0 9.7510071 11.7659912 14.677002 18.7290039 7.8410034v-128.8649878c79.7950134-9.2950134 141.9320068-77.2100067 141.9320068-159.3570099 0-88.473999-72.072998-160.4539984-160.6619873-160.4539984z" fill="#60b8ff"/><path d="m283.8529968 57.5970001c16.9429932-11.1210022 36.7799988-18.1910019 58.1210022-19.8010025-3.0910034-.2330017-6.2139893-.3530006-9.3640137-.3530006-19.7999878 0-38.5190125 4.6959991-55.1119995 13.019001 2.1860047 2.3170013 4.3070069 4.6940002 6.355011 7.1350021z" fill="#60b8ff"/><path d="m228.1329956 160.4889984c0-29.5180054 10.4649963-56.6380005 27.8800049-77.862999-2.9290009-3.5719986-6.0599976-6.9700012-9.3659973-10.1910019-22.9599915 22.3619995-37.2429962 53.5709991-37.2429962 88.0540009 0 67.8470001 55.2700043 123.0449982 123.2050018 123.0449982 3.1499939 0 6.2730103-.1199951 9.3640137-.3529968-63.5770264-4.7950135-113.8400269-57.9909974-113.8400269-122.6920014z" fill="#60b8ff"/><path d="m207.2899933 418.7120056h-27.8999939v-98.901001c28.4530029-3.3139954 54.6580048-14.0859985 76.6039886-30.2950134-10.2870026-7.6000061-19.6380005-16.3890076-27.8430023-26.1730042-19.397995 12.7340088-42.5910034 20.1560059-67.4889984 20.1560059-67.9349976 0-123.2050018-55.197998-123.2050018-123.0449982s55.2700042-123.0449981 123.2050018-123.0449981c67.9360046 0 123.2050171 55.197998 123.2050171 123.0449982 0 29.5149994-10.4630127 56.6320038-27.8739929 77.8570099 7.9419861 9.6869965 17.3389893 18.131012 27.8429871 25.0299988 23.3850098-27.871994 37.4880066-63.7619934 37.4880066-102.8869934-.0000001-88.4750138-72.0720063-160.4540101-160.6620026-160.4540101-88.5890046 0-160.6620026 71.9789963-160.6620026 160.4530029 0 82.1480103 62.137001 150.0620117 141.9329987 159.3569946v98.901001h-27.8990021c-10.3430023 0-18.7290039 8.3739929-18.7290039 18.70401 0 10.3299866 8.3850021 18.70401 18.7290039 18.70401h27.8990021v37.1749878c0 10.3299866 8.3849945 18.70401 18.7290039 18.70401 10.3430023 0 18.7290039-8.3739929 18.7290039-18.70401v-37.1740112h27.8999939c10.3430023 0 18.7290039-8.3739929 18.7290039-18.70401-.0010071-10.3299866-8.3870087-18.7039795-18.730011-18.7039795z" fill="#ff94d4"/><g fill="#ff73c6"><path d="m151.2980042 37.762001c-3.0910034-.2330017-6.2140045-.3530006-9.3639984-.3530006-67.9349976 0-123.2050018 55.1980019-123.2050018 123.0449982s55.2689972 123.0449982 123.2050018 123.0449982c3.1499939 0 6.272995-.1199951 9.3639984-.3529968-63.5780029-4.7940063-113.8399963-57.9909973-113.8399963-122.6920013-.0010072-64.7010003 50.2619933-117.8979989 113.8399963-122.6919977z"/><path d="m160.6620026 493.29599c0 6.9190063-3.7720032 12.9460144-9.3639984 16.1809998 3.2480011 1.8789978 7.1009979 2.8319702 11.2109985 2.4330139 9.6629944-.9389954 16.8820038-9.3439941 16.8820038-19.0400085v-36.75h-13.526001c-2.8730011 0-5.2019958 2.3259888-5.2019958 5.1960144v31.9799804z"/><path d="m207.2899933 418.7120056h-18.7290039c10.3430023 0 18.7290039 8.3739929 18.7290039 18.70401 0 10.3299866-8.3849945 18.70401-18.7290039 18.70401h18.7290039c10.3430023 0 18.7290039-8.3739929 18.7290039-18.70401s-8.3860016-18.70401-18.7290039-18.70401z"/><path d="m302.5960083 160.4530029c0 35.1119995-11.355011 67.6210022-30.5859985 94.0670013 3.7579956 3.1670074 7.7059937 6.1129913 11.8269958 8.8199921 23.3850098-27.871994 37.4880066-63.7619934 37.4880066-102.8869934-.0010071-88.4740066-72.0730133-160.4530029-160.6630096-160.4530029-3.1439972 0-6.2639923.101-9.3639984.28 84.246994 4.8599999 151.2980041 74.8390033 151.2980041 160.1730029z"/><path d="m246.6150055 282.0570068c-22.598999 19.427002-50.6459961 32.7009888-81.5120087 37.1730042-2.5509949.3699951-4.4409943 2.5570068-4.4409943 5.1319885v89.1539917c0 2.868988 2.3289948 5.1960144 5.2019958 5.1960144h13.526001v-98.901001c28.4530029-3.3139954 54.6580048-14.0859985 76.6039886-30.2940063-3.215988-2.3769837-6.3519896-4.8559876-9.3789824-7.4599915z"/></g></svg>