<svg height="512pt" viewBox="0 0 512 511" width="512pt" xmlns="http://www.w3.org/2000/svg"><path d="m512 160.953125c0-88.472656-72.074219-160.453125-160.664062-160.453125-35.667969 0-68.65625 11.675781-95.34375 31.390625 10.289062 7.601563 19.636718 16.398437 27.84375 26.183594 19.398437-12.742188 42.597656-20.167969 67.5-20.167969 67.9375 0 123.207031 55.199219 123.207031 123.046875s-55.269531 123.042969-123.207031 123.042969c-67.933594 0-123.203126-55.195313-123.203126-123.042969 0-29.507813 10.457032-56.617187 27.859376-77.839844-7.941407-9.6875-17.335938-18.144531-27.839844-25.042969-23.378906 27.875-37.476563 63.765626-37.476563 102.882813 0 82.148437 62.136719 150.0625 141.933594 159.355469v98.902344h-27.898437c-10.34375 0-18.730469 8.375-18.730469 18.703124 0 10.332032 8.386719 18.703126 18.730469 18.703126h27.898437v37.175781c0 10.332031 8.382813 18.703125 18.726563 18.703125s18.730468-8.371094 18.730468-18.703125v-37.171875h27.898438c10.34375 0 18.730468-8.375 18.730468-18.707032 0-10.328124-8.386718-18.703124-18.730468-18.703124h-27.898438v-98.898438c79.796875-9.296875 141.933594-77.210938 141.933594-159.359375zm0 0" fill="#ff94d4"/><g fill="#ff73c6"><path d="m351.335938 493.796875c0 6.917969-3.769532 12.945313-9.363282 16.179687 3.25 1.878907 7.101563 2.832032 11.210938 2.433594 9.664062-.9375 16.882812-9.34375 16.882812-19.039062v-36.75h-13.527344c-2.871093 0-5.199218 2.324218-5.199218 5.195312v31.980469zm0 0"/><path d="m351.335938.5c-3.144532 0-6.261719.101562-9.363282.28125 84.25 4.859375 151.296875 74.835938 151.296875 160.171875 0 80.617187-59.839843 147.527344-137.492187 158.777344-2.550782.371093-4.441406 2.558593-4.441406 5.132812v89.152344c0 2.871094 2.328124 5.199219 5.203124 5.199219h13.527344v-98.902344c79.796875-9.296875 141.933594-77.210938 141.933594-159.359375 0-88.472656-72.074219-160.453125-160.664062-160.453125zm0 0"/><path d="m397.964844 419.210938h-18.726563c10.339844 0 18.726563 8.375 18.726563 18.703124 0 10.332032-8.382813 18.707032-18.726563 18.707032h18.726563c10.34375 0 18.730468-8.375 18.730468-18.707032 0-10.328124-8.386718-18.703124-18.730468-18.703124zm0 0"/><path d="m283.835938 58.074219c16.945312-11.128907 36.789062-18.203125 58.136718-19.8125-3.089844-.234375-6.214844-.351563-9.363281-.351563-19.804687 0-38.527344 4.695313-55.121094 13.023438 2.1875 2.3125 4.296875 4.699218 6.347657 7.140625zm0 0"/><path d="m228.132812 160.953125c0-29.507813 10.457032-56.617187 27.863282-77.839844-2.929688-3.574219-6.0625-6.972656-9.367188-10.191406-22.949218 22.359375-37.222656 53.558594-37.222656 88.03125 0 67.847656 55.269531 123.046875 123.203125 123.046875 3.152344 0 6.273437-.121094 9.363281-.355469-63.578125-4.792969-113.839844-57.992187-113.839844-122.691406zm0 0"/></g><path d="m207.289062 419.210938h-27.898437v-98.898438c28.460937-3.316406 54.671875-14.09375 76.621094-30.308594-10.285157-7.601562-19.636719-16.390625-27.839844-26.175781-19.402344 12.742187-42.605469 20.171875-67.511719 20.171875-67.933594 0-123.203125-55.199219-123.203125-123.046875s55.269531-123.042969 123.203125-123.042969c67.9375 0 123.207032 55.195313 123.207032 123.042969 0 29.503906-10.457032 56.613281-27.855469 77.835937 7.941406 9.683594 17.328125 18.144532 27.832031 25.042969 23.378906-27.871093 37.480469-63.757812 37.480469-102.878906 0-88.472656-72.070313-160.453125-160.664063-160.453125-88.585937 0-160.660156 71.980469-160.660156 160.453125 0 82.148437 62.136719 150.0625 141.933594 159.355469v98.902344h-27.898438c-10.34375 0-18.730468 8.375-18.730468 18.703124 0 10.332032 8.386718 18.703126 18.730468 18.703126h27.898438v37.175781c0 10.332031 8.382812 18.703125 18.726562 18.703125s18.730469-8.371094 18.730469-18.703125v-37.171875h27.898437c10.34375 0 18.730469-8.375 18.730469-18.707032 0-10.328124-8.386719-18.703124-18.730469-18.703124zm0 0" fill="#ffe55a"/><path d="m151.296875 38.261719c-3.089844-.234375-6.210937-.351563-9.363281-.351563-67.933594 0-123.203125 55.195313-123.203125 123.042969s55.269531 123.046875 123.203125 123.046875c3.152344 0 6.273437-.121094 9.363281-.355469-63.578125-4.792969-113.839844-57.992187-113.839844-122.691406s50.261719-117.898437 113.839844-122.691406zm0 0" fill="#ffd500"/><path d="m160.660156 493.796875c0 6.917969-3.769531 12.945313-9.363281 16.179687 3.25 1.878907 7.101563 2.832032 11.210937 2.433594 9.664063-.9375 16.882813-9.34375 16.882813-19.039062v-36.75h-13.527344c-2.871093 0-5.203125 2.324218-5.203125 5.195312zm0 0" fill="#ffd500"/><path d="m207.289062 419.210938h-18.726562c10.339844 0 18.726562 8.375 18.726562 18.703124 0 10.332032-8.382812 18.707032-18.726562 18.707032h18.726562c10.34375 0 18.730469-8.375 18.730469-18.707032 0-10.328124-8.386719-18.703124-18.730469-18.703124zm0 0" fill="#ffd500"/><path d="m246.636719 282.539062c-22.601563 19.4375-50.65625 32.71875-81.535157 37.191407-2.550781.371093-4.441406 2.554687-4.441406 5.132812v89.152344c0 2.871094 2.332032 5.195313 5.203125 5.195313h13.527344v-98.898438c28.460937-3.316406 54.671875-14.09375 76.621094-30.308594-3.214844-2.378906-6.347657-4.863281-9.375-7.464844zm0 0" fill="#ffd500"/><path d="m302.597656 160.953125c0 35.105469-11.355468 67.609375-30.578125 94.054687 3.757813 3.167969 7.703125 6.117188 11.824219 8.820313 23.382812-27.867187 37.480469-63.753906 37.480469-102.875 0-88.472656-72.070313-160.453125-160.664063-160.453125-3.140625 0-6.261718.101562-9.363281.28125 84.25 4.859375 151.300781 74.835938 151.300781 160.171875zm0 0" fill="#ffd500"/></svg>