<?xml version="1.0" encoding="iso-8859-1"?>
<!-- Generator: Adobe Illustrator 19.0.0, SVG Export Plug-In . SVG Version: 6.00 Build 0)  -->
<svg version="1.1" id="Layer_1" xmlns="http://www.w3.org/2000/svg" xmlns:xlink="http://www.w3.org/1999/xlink" x="0px" y="0px"
	 viewBox="0 0 511.991 511.991" style="enable-background:new 0 0 511.991 511.991;" xml:space="preserve">
<path style="fill:#ED5564;" d="M460.207,386.353l-1.812-0.531c-26.468-7.094-35.436-13.938-47.217-18.406
	c-41.781-15.938-52.656-27.406-55.438-32.828c-0.109-0.203-0.188-0.406-0.281-0.609l-0.344-48.546l-99.123-1.125l-99.131,1.125
	l-0.344,48.546c-0.086,0.203-0.164,0.406-0.266,0.609c-2.781,5.422-13.656,16.891-55.452,32.828
	c-11.781,4.469-20.742,11.312-47.211,18.406l-1.812,0.531c-24.093,7.969-40.304,30.312-40.304,55.529v70.109h244.52h244.527v-70.109
	C500.519,416.665,484.301,394.322,460.207,386.353z"/>
<path style="fill:#EAC6BB;" d="M393.553,191.481c0,89.373-85.218,171.622-137.561,171.622c-52.351,0-137.553-82.249-137.553-171.622
	c0-89.374,61.585-148.342,137.553-148.342S393.553,102.107,393.553,191.481z"/>
<path style="fill:#434A54;" d="M326.991,50.874c0,0-2.672-23.781,25.812-40.89c12.062-7.25-180.755-41.609-229.145,80.217
	c-18.18,45.781-4.742,113.139-4.742,113.139l41.906-75.139c0,0,45.671,10.672,95.17,10.672c49.5,0,96.826-10.672,96.826-10.672
	l40.734,63.499c0,0,15.641-60.952-1.891-101.358C374.131,49.936,326.991,50.874,326.991,50.874z"/>
<g>
</g>
<g>
</g>
<g>
</g>
<g>
</g>
<g>
</g>
<g>
</g>
<g>
</g>
<g>
</g>
<g>
</g>
<g>
</g>
<g>
</g>
<g>
</g>
<g>
</g>
<g>
</g>
<g>
</g>
</svg>
